<mxfile host="www.draw.io" modified="2020-02-12T20:28:51.396Z" agent="Mozilla/5.0 (Windows NT 10.0; Win64; x64; rv:68.0) Gecko/20100101 Firefox/68.0" etag="we0YIVNeTX2wqem6xpxB" version="12.6.8" type="github">
  <diagram id="8Jl6C5Lkjva-eGGLiPZM" name="Page-1">
    <mxGraphModel dx="1483" dy="911" grid="1" gridSize="10" guides="1" tooltips="1" connect="1" arrows="1" fold="1" page="1" pageScale="1" pageWidth="1100" pageHeight="850" math="0" shadow="0">
      <root>
        <mxCell id="0"/>
        <mxCell id="1" parent="0"/>
        <mxCell id="02fX__gRrcT_8yHX7DRO-1" value="Airline" style="rounded=0;whiteSpace=wrap;html=1;" vertex="1" parent="1">
          <mxGeometry x="440" y="50" width="120" height="60" as="geometry"/>
        </mxCell>
        <mxCell id="02fX__gRrcT_8yHX7DRO-2" value="CrewList" style="rounded=0;whiteSpace=wrap;html=1;" vertex="1" parent="1">
          <mxGeometry x="260" y="140" width="120" height="60" as="geometry"/>
        </mxCell>
        <mxCell id="02fX__gRrcT_8yHX7DRO-3" value="AircraftList" style="rounded=0;whiteSpace=wrap;html=1;" vertex="1" parent="1">
          <mxGeometry x="70" y="140" width="120" height="60" as="geometry"/>
        </mxCell>
        <mxCell id="02fX__gRrcT_8yHX7DRO-4" value="FlightList" style="rounded=0;whiteSpace=wrap;html=1;" vertex="1" parent="1">
          <mxGeometry x="630" y="140" width="120" height="60" as="geometry"/>
        </mxCell>
        <mxCell id="02fX__gRrcT_8yHX7DRO-5" value="PassengerList" style="rounded=0;whiteSpace=wrap;html=1;" vertex="1" parent="1">
          <mxGeometry x="870" y="140" width="120" height="60" as="geometry"/>
        </mxCell>
        <mxCell id="02fX__gRrcT_8yHX7DRO-8" value="" style="rounded=0;whiteSpace=wrap;html=1;" vertex="1" parent="1">
          <mxGeometry x="70" y="220" width="120" height="60" as="geometry"/>
        </mxCell>
      </root>
    </mxGraphModel>
  </diagram>
</mxfile>
